<svg id="visual" viewBox="0 0 960 540" width="960" height="540" xmlns="http://www.w3.org/2000/svg" xmlns:xlink="http://www.w3.org/1999/xlink" version="1.1"><path d="M0 174L87 125L175 136L262 195L349 185L436 114L524 141L611 125L698 109L785 98L873 163L960 179L960 0L873 0L785 0L698 0L611 0L524 0L436 0L349 0L262 0L175 0L87 0L0 0Z" fill="#00cc8e"></path><path d="M0 233L87 212L175 206L262 266L349 244L436 190L524 228L611 217L698 174L785 206L873 228L960 244L960 177L873 161L785 96L698 107L611 123L524 139L436 112L349 183L262 193L175 134L87 123L0 172Z" fill="#00ad86"></path><path d="M0 363L87 325L175 347L262 379L349 347L436 341L524 325L611 341L698 320L785 352L873 352L960 352L960 242L873 226L785 204L698 172L611 215L524 226L436 188L349 242L262 264L175 204L87 210L0 231Z" fill="#008f79"></path><path d="M0 417L87 374L175 395L262 411L349 395L436 395L524 368L611 395L698 374L785 395L873 401L960 406L960 350L873 350L785 350L698 318L611 339L524 323L436 339L349 345L262 377L175 345L87 323L0 361Z" fill="#038373"></path><path d="M0 455L87 433L175 433L262 455L349 438L436 433L524 422L611 455L698 438L785 455L873 438L960 471L960 404L873 399L785 393L698 372L611 393L524 366L436 393L349 393L262 409L175 393L87 372L0 415Z" fill="#008f79"></path><path d="M0 503L87 509L175 498L262 509L349 514L436 509L524 503L611 514L698 509L785 503L873 498L960 514L960 469L873 436L785 453L698 436L611 453L524 420L436 431L349 436L262 453L175 431L87 431L0 453Z" fill="#00ad86"></path><path d="M0 541L87 541L175 541L262 541L349 541L436 541L524 541L611 541L698 541L785 541L873 541L960 541L960 512L873 496L785 501L698 507L611 512L524 501L436 507L349 512L262 507L175 496L87 507L0 501Z" fill="#00cc8e"></path></svg>